<svg width="28" height="32" viewBox="0 0 28 32" fill="none" xmlns="http://www.w3.org/2000/svg">
<path d="M24.1359 6.07302C24.1134 5.91572 23.9786 5.82585 23.8662 5.82586C23.7538 5.82586 21.5292 5.78107 21.5292 5.78107C21.5292 5.78107 19.664 3.98352 19.4842 3.78129C19.3044 3.60153 18.9449 3.6465 18.8101 3.69145C18.8101 3.69145 18.4506 3.80383 17.8663 3.98364C17.7764 3.66905 17.6191 3.28705 17.4168 2.88259C16.7651 1.62426 15.7763 0.950193 14.6078 0.950271C14.5179 0.950277 14.4505 0.950282 14.3606 0.972759C14.3157 0.92782 14.2932 0.88288 14.2483 0.860412C13.7314 0.321142 13.0797 0.0515343 12.2933 0.0740581C10.7877 0.119101 9.28221 1.22028 8.04644 3.15287C7.19263 4.52366 6.54109 6.2315 6.33894 7.5573C4.60871 8.09672 3.3953 8.47881 3.35036 8.47881C2.47401 8.74852 2.45154 8.77099 2.33924 9.60243C2.29434 10.2316 0.00348942 27.9614 0.00348942 27.9614L19.2389 31.2858L27.5755 29.2179C27.553 29.2179 24.1583 6.23031 24.1359 6.07302ZM16.9001 4.2983C16.4507 4.43315 15.9563 4.59048 15.417 4.77029C15.417 4.00627 15.3046 2.92767 14.9674 2.02885C16.1135 2.20855 16.6753 3.51183 16.9001 4.2983ZM14.4059 5.06248C13.3947 5.37714 12.2936 5.71428 11.1926 6.05142C11.5071 4.86043 12.0913 3.6919 12.8103 2.90537C13.0799 2.61323 13.4619 2.29861 13.8888 2.11881C14.3383 2.99515 14.4283 4.23105 14.4059 5.06248ZM12.3383 1.08525C12.6978 1.08523 12.9899 1.15262 13.2371 1.33237C12.8327 1.53464 12.4282 1.84926 12.0687 2.25376C11.1025 3.28749 10.3611 4.88298 10.069 6.4335C9.14776 6.72568 8.24894 6.99539 7.44 7.24263C7.97914 4.79326 10.0238 1.15282 12.3383 1.08525Z" fill="#95BF47"/>
<path d="M23.8662 5.8258C23.7539 5.82581 21.5292 5.78102 21.5292 5.78102C21.5292 5.78102 19.664 3.98346 19.4842 3.78124C19.4168 3.71383 19.3269 3.66889 19.2371 3.6689L19.2389 31.2857L27.5755 29.2179C27.5755 29.2179 24.1809 6.23026 24.1584 6.07297C24.1134 5.91567 23.9786 5.8258 23.8662 5.8258Z" fill="#5E8E3E"/>
<path d="M14.6085 10.1185L13.6425 13.7364C13.6425 13.7364 12.5638 13.2421 11.283 13.332C9.39542 13.4445 9.3955 14.6355 9.39552 14.9276C9.50798 16.5455 13.755 16.9048 14.0025 20.7023C14.1824 23.691 12.4298 25.7359 9.86815 25.8934C6.8121 26.0509 5.12666 24.2534 5.12666 24.2534L5.77813 21.4894C5.77813 21.4894 7.48601 22.7701 8.83427 22.6801C9.71063 22.6351 10.0476 21.8936 10.0027 21.3992C9.8677 19.2869 6.40718 19.422 6.18224 15.939C6.00227 13.0178 7.91211 10.074 12.1366 9.80403C13.777 9.69157 14.6085 10.1185 14.6085 10.1185Z" fill="white"/>
</svg>
