<svg width="65" height="64" viewBox="0 0 65 64" fill="none" xmlns="http://www.w3.org/2000/svg">
<path d="M64.0186 33.4105C64.0246 30.8128 63.2275 28.2767 61.7358 26.1498C60.2445 24.0228 58.1317 22.4091 55.6874 21.5296C55.91 20.3958 56.022 19.2432 56.0223 18.0877C56.0246 14.2633 54.8138 10.5367 52.5645 7.44376C50.3152 4.35077 47.1431 2.05069 43.504 0.874234C39.8653 -0.302227 35.9469 -0.294474 32.3126 0.896377C28.6783 2.08723 25.5152 4.39985 23.2782 7.50169C21.6278 6.22277 19.6055 5.5165 17.5177 5.48997C15.4299 5.46344 13.3903 6.11803 11.7079 7.35457C10.0255 8.59115 8.79193 10.3423 8.19401 12.3429C7.59613 14.3434 7.66649 16.4843 8.39446 18.4412C5.94434 19.3343 3.82649 20.9562 2.32574 23.0889C0.825001 25.2217 0.0133782 27.7628 4.2899e-05 30.3705C-0.00675572 32.9773 0.794683 35.522 2.29402 37.6543C3.79334 39.7867 5.91684 41.402 8.37213 42.2775C8.15479 43.4109 8.04391 44.5618 8.04097 45.7156C8.03732 49.5356 9.24692 53.258 11.4953 56.3463C13.7438 59.4343 16.9148 61.7287 20.5513 62.8985C24.1878 64.068 28.1018 64.0528 31.729 62.8543C35.3562 61.6561 38.509 59.3369 40.733 56.231C42.3788 57.5132 44.3974 58.2236 46.4834 58.2548C48.5693 58.2861 50.6084 57.636 52.2914 56.4036C53.9747 55.1709 55.2101 53.4232 55.8099 51.4254C56.4101 49.4273 56.3423 47.2885 55.6167 45.3324C58.0681 44.4409 60.1875 42.8193 61.6889 40.6864C63.1907 38.5536 64.0022 36.0116 64.0149 33.4031" fill="white"/>
<path d="M25.1684 27.4642L39.1777 33.8605L53.3172 21.4772C53.5208 20.4554 53.622 19.4159 53.6186 18.374C53.6179 15.0009 52.5377 11.7167 50.5358 9.00179C48.5343 6.28689 45.7165 4.28387 42.4942 3.28584C39.2722 2.2878 35.8155 2.34714 32.6296 3.45516C29.4438 4.5632 26.6962 6.66173 24.7889 9.44372L22.4335 21.626L25.1684 27.4642Z" fill="#FEC514"/>
<path d="M10.6679 42.2996C10.4614 43.3373 10.3579 44.393 10.3591 45.4512C10.3592 48.8383 11.445 52.1362 13.4571 54.8607C15.4692 57.5855 18.3017 59.5933 21.5389 60.5898C24.776 61.5863 28.2474 61.5189 31.4435 60.3974C34.6395 59.2763 37.392 57.1598 39.2967 54.3591L41.6298 42.2028L38.5154 36.2494L24.454 29.8419L10.6679 42.2996Z" fill="#00BFB3"/>
<path d="M10.5824 18.0577L20.1824 20.3237L22.2847 9.40653C20.9789 8.41643 19.3876 7.87593 17.749 7.86596C16.1103 7.85595 14.5125 8.37706 13.1948 9.3512C11.8771 10.3253 10.9104 11.7001 10.4395 13.2696C9.96852 14.8392 10.0186 16.519 10.5824 18.0577Z" fill="#F04E98"/>
<path d="M9.7489 20.3423C7.64255 21.0531 5.81007 22.4027 4.50633 24.2032C3.20257 26.0038 2.49236 28.1659 2.47446 30.3889C2.47294 32.5373 3.12538 34.6353 4.34503 36.4039C5.56464 38.1727 7.29371 39.5282 9.30238 40.2903L22.7722 28.1154L20.2977 22.8316L9.7489 20.3423Z" fill="#1BA9F5"/>
<path d="M41.76 54.3591C43.0638 55.344 44.6512 55.8813 46.285 55.8899C47.9189 55.8984 49.5118 55.3786 50.8257 54.4074C52.1399 53.4363 53.1044 52.0659 53.5758 50.5012C54.0469 48.9369 53.9993 47.2618 53.44 45.7265L43.8474 43.494L41.76 54.3591Z" fill="#93C90E"/>
<path d="M43.7098 40.9674L54.2698 43.4344C56.3773 42.7256 58.211 41.3768 59.5152 39.5755C60.8193 37.7745 61.5285 35.6114 61.5442 33.388C61.5423 31.2441 60.8885 29.1514 59.6699 27.3877C58.451 25.624 56.7248 24.2725 54.72 23.5126L40.9079 35.6056L43.7098 40.9674Z" fill="#0077CC"/>
</svg>
