<svg width="34" height="40" viewBox="0 0 34 40" fill="none" xmlns="http://www.w3.org/2000/svg">
<path fill-rule="evenodd" clip-rule="evenodd" d="M14.0709 11.7931L2.52551 23.5863C1.08263 22.1121 0.180599 20.0853 0 17.6896C0 15.4786 1.0824 13.2673 2.52551 11.7931L14.2515 0C15.6946 1.47425 16.5964 3.68527 16.5964 5.89653C16.5964 8.10778 15.5143 10.319 14.0711 11.7931H14.0709ZM19.1497 28.1222L30.8216 16.3289C32.2807 17.9873 33.1928 20.0144 33.1928 22.2254C33.1928 24.4366 32.0982 26.6479 30.6395 28.1222L18.9672 39.9152C17.5083 38.441 16.5964 36.2297 16.5964 34.0187C16.5964 31.8074 17.6905 29.5962 19.1497 28.1222ZM18.8635 11.7931L22.3097 8.34587L30.8347 0C32.2857 1.4515 33.1926 3.62874 33.1926 5.80599C33.1926 7.98323 32.1044 10.1602 30.6532 11.6117L22.3097 19.9576L18.8635 23.4048L13.9665 28.3035L10.5202 31.7507L2.35808 39.9152C0.906826 38.4637 0 36.2865 0 34.1092C0 31.932 1.08838 29.7547 2.5394 28.3035L10.7016 20.1389L13.9662 16.6917L18.8635 11.7931Z" fill="#1292EE"/>
</svg>
