<svg width="35" height="30" viewBox="0 0 35 30" fill="none" xmlns="http://www.w3.org/2000/svg">
<path d="M9.56575 30C4.31939 30 0.0282845 25.5588 0.000128275 20.0999L0 20C0 16.5444 0.906708 13.2254 2.63258 10.3251C1.95445 9.24839 1.59086 7.98801 1.59086 6.66669C1.59092 2.99063 4.44567 0 7.9545 0C9.84045 0 11.5996 0.870334 12.7946 2.3376C14.3206 1.89185 15.8983 1.66662 17.5005 1.66662C17.5822 1.66662 17.6641 1.66716 17.7461 1.66844C19.2588 1.69034 20.7519 1.91678 22.2007 2.34324C23.3956 0.872416 25.1562 0 27.0454 0C30.5542 0 33.409 2.99063 33.409 6.66669C33.409 7.99419 33.0424 9.25928 32.3587 10.3388C34.0066 13.1014 34.9136 16.249 34.9941 19.5172C34.9987 19.7101 35.0006 19.9026 34.9998 20.0944C34.9731 25.5567 30.682 30 25.4342 30H9.56575Z" fill="url(#paint0_linear_7_596)"/>
<path d="M33.4035 19.5602C33.3182 16.0905 32.2069 12.8784 30.3791 10.2432C31.2664 9.33521 31.8181 8.06871 31.8181 6.66663C31.8181 3.90518 29.6812 1.66663 27.0454 1.66663C25.2248 1.66663 23.6428 2.73477 22.838 4.30517C21.2336 3.70166 19.5131 3.36073 17.7242 3.33486C15.7693 3.30664 13.8939 3.64824 12.1577 4.29664C11.3515 2.73081 9.77172 1.66663 7.95452 1.66663C5.31861 1.66663 3.18181 3.90518 3.18181 6.66663C3.18181 8.06267 3.72845 9.32453 4.60912 10.2316C2.71066 12.9765 1.59082 16.3511 1.59082 20C1.59082 20.0304 1.59088 20.0607 1.59108 20.091C1.61449 24.6613 5.20316 28.3334 9.56571 28.3334H25.4342C29.7984 28.3334 33.3865 24.6586 33.4088 20.0866C33.4096 19.9118 33.4078 19.7363 33.4036 19.5602L33.4035 19.5602Z" fill="black"/>
<path d="M9.56587 27.5C5.62823 27.5 2.40758 24.1743 2.3866 20.0865L2.38647 20C2.38647 11.2694 9.16649 4.16655 17.5002 4.16655C17.5706 4.16655 17.6427 4.16702 17.7134 4.1681C21.6159 4.2244 25.3077 5.85152 28.1088 8.74969C30.91 11.6481 32.508 15.495 32.6085 19.5816C32.6126 19.7492 32.6143 19.9162 32.6135 20.0826C32.5936 24.1724 29.3731 27.5 25.4344 27.5H9.56587V27.5Z" fill="white"/>
<path d="M26.1785 11.8226C24.1911 9.9285 20.5717 9.8818 19.5464 11.5396C18.5771 13.1068 20.1521 15.8327 21.4583 17.1992C22.8202 18.6241 25.4394 20.1924 26.8607 19.2022C28.4521 18.0934 28.3608 13.9027 26.1785 11.8226V11.8226Z" fill="black"/>
<path d="M8.81698 11.8226C10.8043 9.9285 14.4237 9.8818 15.449 11.5396C16.4183 13.1068 14.8433 15.8327 13.5372 17.1992C12.1753 18.6241 9.55603 20.1924 8.13475 19.2022C6.54331 18.0934 6.63464 13.9027 8.81698 11.8226V11.8226Z" fill="black"/>
<path d="M21.4592 20.6586C21.6354 21.9699 19.5369 23.6915 17.5006 23.6917C15.464 23.6918 13.3653 21.9699 13.5414 20.6586C13.7098 19.4054 15.9334 18.6951 17.5003 18.6951C19.0672 18.6951 21.2908 19.4054 21.4592 20.6586Z" fill="black"/>
<defs>
<linearGradient id="paint0_linear_7_596" x1="29.5673" y1="-1.00787" x2="-1.37458" y2="28.5274" gradientUnits="userSpaceOnUse">
<stop stop-color="white"/>
<stop offset="0.180645" stop-color="#B4A7A7"/>
<stop offset="1" stop-color="#33FFC2"/>
</linearGradient>
</defs>
</svg>
